<svg width="40" height="40" viewBox="0 0 40 40" fill="none" xmlns="http://www.w3.org/2000/svg">
<path d="M40 20C40 31.0457 31.0457 40 20 40C8.9543 40 0 31.0457 0 20C0 8.9543 8.9543 0 20 0C31.0457 0 40 8.9543 40 20Z" fill="black"/>
<g clip-path="url(#clip0_26_623)">
<path d="M23.0002 31.9997C21.3197 31.9985 19.6581 31.6448 18.1227 30.9617C16.5873 30.2786 15.2122 29.2811 14.0862 28.0337C12.9516 26.7849 12.0956 25.309 11.5749 23.704C11.0542 22.0991 10.8808 20.4018 11.0662 18.7247C11.365 16.1147 12.5036 13.6725 14.3105 11.7656C16.1175 9.85869 18.495 8.59043 21.0852 8.15172C22.7596 7.8931 24.4683 7.96272 26.1162 8.35672C26.5476 8.46758 26.9417 8.69172 27.2575 9.00596C27.5732 9.3202 27.7993 9.71311 27.9123 10.144C28.0253 10.575 28.0211 11.0283 27.9001 11.457C27.7791 11.8858 27.5457 12.2744 27.2242 12.5827C22.6642 16.7487 23.0602 23.2267 28.0312 26.9927C28.3826 27.2686 28.6538 27.6336 28.8163 28.0498C28.9789 28.466 29.0269 28.9181 28.9554 29.3592C28.884 29.8003 28.6956 30.2141 28.4099 30.5577C28.1243 30.9012 27.7518 31.162 27.3312 31.3127C25.933 31.7695 24.4711 32.0014 23.0002 31.9997ZM23.0762 9.99972C22.5147 9.99837 21.954 10.0408 21.3992 10.1267C19.2427 10.4914 17.263 11.5468 15.7582 13.1339C14.2533 14.7209 13.3047 16.7539 13.0552 18.9267C12.8992 20.3268 13.0429 21.744 13.4769 23.0842C13.9109 24.4244 14.6251 25.6569 15.5722 26.6997C16.9585 28.1794 18.7444 29.2249 20.7133 29.7095C22.6822 30.1941 24.7494 30.0969 26.6642 29.4297C26.7467 29.3988 26.8196 29.3466 26.8755 29.2784C26.9313 29.2103 26.9682 29.1286 26.9823 29.0415C26.9964 28.9545 26.9873 28.8654 26.9558 28.783C26.9244 28.7007 26.8717 28.6281 26.8032 28.5727C20.8742 24.0947 20.4032 16.0867 25.8552 11.1237C25.9177 11.0656 25.9628 10.9913 25.9854 10.9089C26.0081 10.8266 26.0073 10.7396 25.9832 10.6577C25.9624 10.5708 25.9182 10.4912 25.8555 10.4276C25.7927 10.364 25.7138 10.3187 25.6272 10.2967C24.7919 10.0952 23.9354 9.99552 23.0762 9.99972Z" fill="white"/>
</g>
<defs>
<clipPath id="clip0_26_623">
<rect width="24" height="24" fill="white" transform="translate(8 8)"/>
</clipPath>
</defs>
</svg>
