<svg width="50" height="40" viewBox="0 0 50 40" fill="none" xmlns="http://www.w3.org/2000/svg">
<path d="M25.0003 0.5C20.612 0.500111 16.301 1.65535 12.5006 3.8496C8.70017 6.04386 5.54432 9.19981 3.35018 13.0003C1.15605 16.8007 0.000948692 21.1118 0.000976563 25.5002C0.00100443 29.8885 1.15616 34.1996 3.35034 38C3.68186 38.5768 4.22896 38.9984 4.87127 39.1718C5.51358 39.3453 6.1985 39.2565 6.77534 38.925C7.35219 38.5935 7.77371 38.0464 7.94718 37.4041C8.12065 36.7618 8.03186 36.0768 7.70034 35.5C5.92895 32.4653 4.99706 29.0139 5.00034 25.5C5.00154 22.433 5.7081 19.4073 7.0654 16.6569C8.4227 13.9065 10.3944 11.5052 12.828 9.63853C15.2615 7.77187 18.0918 6.48992 21.1 5.89179C24.1082 5.29366 27.2136 5.39539 30.1761 6.18911C33.1387 6.98283 35.879 8.44728 38.1852 10.4692C40.4914 12.4911 42.3017 15.0164 43.4761 17.8497C44.6505 20.683 45.1575 23.7484 44.958 26.809C44.7584 29.8695 43.8577 32.8432 42.3253 35.5C42.16 35.7853 42.0528 36.1006 42.0099 36.4275C41.9669 36.7544 41.9891 37.0867 42.075 37.405C42.161 37.7234 42.3091 38.0216 42.5108 38.2824C42.7125 38.5433 42.9639 38.7617 43.2503 38.925C43.8244 39.2509 44.504 39.3366 45.141 39.1633C45.778 38.99 46.3205 38.5718 46.6503 38C48.8445 34.1996 49.9997 29.8885 49.9997 25.5002C49.9997 21.1118 48.8446 16.8007 46.6505 13.0003C44.4564 9.19981 41.3005 6.04386 37.5001 3.8496C33.6997 1.65535 29.3887 0.500111 25.0003 0.5ZM32.1003 14.9L28.2253 18.75C27.2223 18.2554 26.1187 17.9988 25.0003 18C23.517 18 22.0669 18.4399 20.8336 19.264C19.6002 20.0881 18.6389 21.2594 18.0712 22.6299C17.5036 24.0003 17.3551 25.5083 17.6445 26.9632C17.9338 28.418 18.6481 29.7544 19.697 30.8033C20.7459 31.8522 22.0823 32.5665 23.5372 32.8559C24.992 33.1453 26.5 32.9968 27.8705 32.4291C29.2409 31.8614 30.4123 30.9001 31.2364 29.6668C32.0605 28.4334 32.5003 26.9834 32.5003 25.5C32.4986 24.39 32.242 23.2952 31.7503 22.3L35.6253 18.45C35.8597 18.2176 36.0456 17.9411 36.1726 17.6364C36.2995 17.3318 36.3648 17.005 36.3648 16.675C36.3648 16.345 36.2995 16.0182 36.1726 15.7136C36.0456 15.4089 35.8597 15.1324 35.6253 14.9C35.1569 14.4344 34.5233 14.173 33.8628 14.173C33.2024 14.173 32.5687 14.4344 32.1003 14.9ZM25.0003 28C24.3373 28 23.7014 27.7366 23.2326 27.2678C22.7637 26.7989 22.5003 26.163 22.5003 25.5C22.5003 24.837 22.7637 24.2011 23.2326 23.7322C23.7014 23.2634 24.3373 23 25.0003 23C25.6527 22.9961 26.2807 23.2473 26.7503 23.7C26.9896 23.9345 27.1792 24.2146 27.3081 24.5239C27.4369 24.8331 27.5023 25.165 27.5003 25.5C27.5003 26.163 27.2369 26.7989 26.7681 27.2678C26.2993 27.7366 25.6634 28 25.0003 28Z" fill="#EF2B2D"/>
</svg>
