<svg width="54" height="57" viewBox="0 0 54 57" fill="none" xmlns="http://www.w3.org/2000/svg">
<path d="M0.75 26.25C1.76562 26.25 2.73242 26.0547 3.65039 25.6641C4.56836 25.2734 5.35938 24.7363 6.02344 24.0527C6.6875 23.3691 7.22461 22.5781 7.63477 21.6797C8.04492 20.7812 8.25 19.8047 8.25 18.75C8.25 17.3633 8.2207 15.9766 8.16211 14.5898C8.10352 13.2031 8.14258 11.8555 8.2793 10.5469C8.41602 9.23828 8.72852 7.95898 9.2168 6.70898C9.70508 5.45898 10.4766 4.31641 11.5312 3.28125C12.5859 2.22656 13.8066 1.41602 15.1934 0.849609C16.5801 0.283203 18.0156 0 19.5 0V3.75C18.4648 3.75 17.498 3.94531 16.5996 4.33594C15.7012 4.72656 14.9102 5.26367 14.2266 5.94727C13.543 6.63086 13.0059 7.43164 12.6152 8.34961C12.2246 9.26758 12.0195 10.2344 12 11.25C12 12.3438 12.0195 13.418 12.0586 14.4727C12.0977 15.5273 12.1074 16.5723 12.0879 17.6074C12.0684 18.6426 11.9707 19.6387 11.7949 20.5957C11.6191 21.5527 11.3555 22.4805 11.0039 23.3789C10.6523 24.2773 10.1445 25.1172 9.48047 25.8984C8.81641 26.6797 7.98633 27.4219 6.99023 28.125C8.00586 28.8086 8.83594 29.5508 9.48047 30.3516C10.125 31.1523 10.6328 31.9922 11.0039 32.8711C11.375 33.75 11.6387 34.668 11.7949 35.625C11.9512 36.582 12.0391 37.5781 12.0586 38.6133C12.0781 39.6484 12.0781 40.6934 12.0586 41.748C12.0391 42.8027 12.0195 43.8867 12 45C12 46.0352 12.1953 47.002 12.5859 47.9004C12.9766 48.7988 13.5137 49.5898 14.1973 50.2734C14.8809 50.957 15.6719 51.4941 16.5703 51.8848C17.4688 52.2754 18.4453 52.4805 19.5 52.5V56.25C18.0156 56.25 16.5801 55.9668 15.1934 55.4004C13.8066 54.834 12.5859 54.0234 11.5312 52.9688C10.4766 51.9141 9.71484 50.7715 9.24609 49.541C8.77734 48.3105 8.46484 47.041 8.30859 45.7324C8.15234 44.4238 8.10352 43.0664 8.16211 41.6602C8.2207 40.2539 8.25 38.8672 8.25 37.5C8.25 36.4844 8.05469 35.5176 7.66406 34.5996C7.27344 33.6816 6.73633 32.8906 6.05273 32.2266C5.36914 31.5625 4.56836 31.0254 3.65039 30.6152C2.73242 30.2051 1.76562 30 0.75 30V26.25ZM34.5 0C35.9844 0 37.4199 0.283203 38.8066 0.849609C40.1934 1.41602 41.4141 2.22656 42.4688 3.28125C43.5234 4.33594 44.2852 5.47852 44.7539 6.70898C45.2227 7.93945 45.5352 9.20898 45.6914 10.5176C45.8477 11.8262 45.8965 13.1836 45.8379 14.5898C45.7793 15.9961 45.75 17.3828 45.75 18.75C45.75 19.7852 45.9453 20.752 46.3359 21.6504C46.7266 22.5488 47.2637 23.3398 47.9473 24.0234C48.6309 24.707 49.4219 25.2441 50.3203 25.6348C51.2188 26.0254 52.1953 26.2305 53.25 26.25V30C52.2148 30 51.248 30.1953 50.3496 30.5859C49.4512 30.9766 48.6602 31.5137 47.9766 32.1973C47.293 32.8809 46.7559 33.6816 46.3652 34.5996C45.9746 35.5176 45.7695 36.4844 45.75 37.5C45.75 38.8867 45.7793 40.2734 45.8379 41.6602C45.8965 43.0469 45.8574 44.3945 45.7207 45.7031C45.584 47.0117 45.2715 48.291 44.7832 49.541C44.2949 50.791 43.5234 51.9336 42.4688 52.9688C41.4141 54.0234 40.1934 54.834 38.8066 55.4004C37.4199 55.9668 35.9844 56.25 34.5 56.25V52.5C35.5156 52.5 36.4824 52.3047 37.4004 51.9141C38.3184 51.5234 39.1094 50.9863 39.7734 50.3027C40.4375 49.6191 40.9746 48.8281 41.3848 47.9297C41.7949 47.0312 42 46.0547 42 45C42 43.9062 41.9805 42.832 41.9414 41.7773C41.9023 40.7227 41.8926 39.6777 41.9121 38.6426C41.9316 37.6074 42.0293 36.6113 42.2051 35.6543C42.3809 34.6973 42.6445 33.7695 42.9961 32.8711C43.3477 31.9727 43.8555 31.1328 44.5195 30.3516C45.1836 29.5703 46.0137 28.8281 47.0098 28.125C45.9941 27.4414 45.1641 26.6992 44.5195 25.8984C43.875 25.0977 43.3672 24.2578 42.9961 23.3789C42.625 22.5 42.3613 21.582 42.2051 20.625C42.0488 19.668 41.9609 18.6719 41.9414 17.6367C41.9219 16.6016 41.9219 15.5566 41.9414 14.502C41.9609 13.4473 41.9805 12.3633 42 11.25C42 10.2344 41.8047 9.26758 41.4141 8.34961C41.0234 7.43164 40.4863 6.64062 39.8027 5.97656C39.1191 5.3125 38.3184 4.77539 37.4004 4.36523C36.4824 3.95508 35.5156 3.75 34.5 3.75V0Z" fill="#EF2B2D"/>
</svg>
