<svg width="60" height="60" viewBox="0 0 60 60" fill="none" xmlns="http://www.w3.org/2000/svg">
<path d="M52.5 56.2501H41.25C40.2557 56.2491 39.3024 55.8537 38.5994 55.1507C37.8964 54.4476 37.5009 53.4944 37.5 52.5001V41.2501C37.5009 40.2559 37.8964 39.3026 38.5994 38.5996C39.3024 37.8965 40.2557 37.5011 41.25 37.5001H52.5C53.4942 37.5011 54.4475 37.8965 55.1505 38.5996C55.8536 39.3026 56.249 40.2559 56.25 41.2501V52.5001C56.249 53.4944 55.8536 54.4476 55.1505 55.1507C54.4475 55.8537 53.4942 56.2491 52.5 56.2501ZM41.25 41.2501V52.5001H52.5V41.2501H41.25ZM33.75 48.7501H22.5C21.0086 48.7486 19.5787 48.1555 18.5241 47.101C17.4696 46.0464 16.8765 44.6165 16.875 43.1251V35.6251H20.625V43.1251C20.6255 43.6223 20.8232 44.0989 21.1747 44.4504C21.5262 44.8019 22.0028 44.9996 22.5 45.0001H33.75V48.7501ZM48.75 33.7501H45V28.1251C44.9995 27.628 44.8018 27.1514 44.4502 26.7999C44.0987 26.4483 43.6221 26.2506 43.125 26.2501H33.75V22.5001H43.125C44.6163 22.5016 46.0462 23.0947 47.1008 24.1493C48.1554 25.2039 48.7485 26.6337 48.75 28.1251V33.7501ZM28.125 33.7501C27.7981 33.7504 27.4768 33.665 27.1931 33.5026L18.75 28.6651L10.3068 33.5026C9.99017 33.684 9.62748 33.7689 9.26322 33.7472C8.89897 33.7254 8.54898 33.5978 8.25618 33.38C7.96337 33.1623 7.74047 32.8638 7.6148 32.5212C7.48914 32.1786 7.46617 31.8068 7.54871 31.4514L9.53809 22.8789L4.25434 17.2164C4.0234 16.9686 3.86389 16.6629 3.79277 16.3317C3.72165 16.0005 3.74157 15.6563 3.85041 15.3355C3.95926 15.0148 4.15296 14.7295 4.41094 14.51C4.66892 14.2905 4.98154 14.145 5.31559 14.0889L13.1906 12.7726L17.0643 4.80389C17.2167 4.49108 17.4531 4.22684 17.7471 4.04074C18.0411 3.85464 18.3811 3.75401 18.729 3.75012C19.0769 3.74623 19.4191 3.83922 19.7172 4.0187C20.0152 4.19818 20.2575 4.45707 20.4168 4.76639L24.5493 12.7726L32.1937 14.0889C32.527 14.1463 32.8385 14.2928 33.0953 14.5129C33.3521 14.733 33.5446 15.0184 33.6524 15.3389C33.7602 15.6595 33.7793 16.0032 33.7077 16.3337C33.6361 16.6642 33.4764 16.9692 33.2456 17.2164L27.9618 22.8789L29.9493 31.4514C30.0131 31.7262 30.014 32.0118 29.9521 32.2869C29.8901 32.5621 29.7669 32.8198 29.5915 33.0407C29.4162 33.2617 29.1932 33.4402 28.9393 33.563C28.6854 33.6859 28.407 33.7498 28.125 33.7501ZM18.75 24.3751C18.75 24.3751 19.3931 24.7126 19.6818 24.8795L25.3256 28.112L23.8556 21.7801L28.1343 17.1958L22.0725 16.1514L18.8006 9.81014L15.7181 16.1514L9.37871 17.2108L13.6425 21.7801L12.1725 28.112L17.8162 24.8795C18.1087 24.7126 18.75 24.3751 18.75 24.3751Z" fill="#EF2B2D"/>
</svg>
