<svg width="41" height="40" viewBox="0 0 41 40" fill="none" xmlns="http://www.w3.org/2000/svg">
<g clip-path="url(#clip0_91_651)">
<path d="M20.5 0.0124512C9.45375 0.0124512 0.5 8.9662 0.5 20.0125C0.5 31.0575 9.45375 40.0124 20.5 40.0124C31.5462 40.0124 40.5 31.0575 40.5 20.0125C40.5 8.96745 31.5462 0.0124512 20.5 0.0124512Z" fill="#0057FF"/>
<path d="M18.3551 19.5088C18.3551 19.5088 20.4526 19.3488 20.4526 16.8388C20.4526 14.33 19.0301 13.0938 16.8551 13.0938L9.40381 13.0825V26.945H17.0276C17.0276 26.945 20.8401 27.065 20.8401 22.7863C20.8401 22.785 21.1201 19.5088 18.3551 19.5088ZM12.1763 15.1613H15.9888C15.9888 15.1613 17.2938 15.1825 17.2938 16.8738C17.2938 18.6263 15.9888 18.6263 15.9888 18.6263H12.1763V15.1613ZM16.3351 24.865H12.1763V20.7063H16.3351C16.3351 20.7063 18.4138 20.7275 18.4138 22.785C18.4138 24.8425 16.6338 24.865 16.3351 24.865ZM26.7313 16.5475C21.5238 16.5475 21.5326 21.7463 21.5326 21.7463C21.5326 21.7463 21.1863 26.945 26.7313 26.945C26.7313 26.945 31.5826 26.945 31.5826 22.7863H28.8101C28.8101 22.7863 28.8101 24.865 26.7313 24.865C26.7313 24.865 24.6526 24.865 24.6526 22.0925H31.5838C31.5838 20.7063 31.5838 16.5475 26.7313 16.5475ZM24.6526 20.7063C24.6526 20.7063 24.6063 18.6275 26.7313 18.6275C28.8563 18.6275 28.8101 20.7063 28.8101 20.7063H24.6526ZM23.9588 14.4675H29.5038V15.8538H23.9588V14.4675Z" fill="white"/>
</g>
<defs>
<clipPath id="clip0_91_651">
<rect width="40" height="40" fill="white" transform="translate(0.5)"/>
</clipPath>
</defs>
</svg>
