<svg width="41" height="40" viewBox="0 0 41 40" fill="none" xmlns="http://www.w3.org/2000/svg">
<g clip-path="url(#clip0_91_647)">
<path d="M0.5 20C0.5 8.95417 9.45417 0 20.5 0C31.5458 0 40.5 8.95417 40.5 20C40.5 31.0458 31.5458 40 20.5 40C9.45417 40 0.5 31.0458 0.5 20Z" fill="#0077B5"/>
<path fill-rule="evenodd" clip-rule="evenodd" d="M14.9322 12.3525C14.9322 13.66 13.948 14.7058 12.3672 14.7058H12.3388C10.8172 14.7058 9.83301 13.66 9.83301 12.3525C9.83301 11.0167 10.8472 10 12.3972 10C13.9472 10 14.903 11.0167 14.9322 12.3525ZM14.6338 16.565V30.1833H10.1005V16.565H14.6338ZM30.9788 30.1833V22.375C30.9788 18.1917 28.743 16.245 25.7605 16.245C23.3547 16.245 22.2772 17.5667 21.6755 18.4942V16.565H17.1422C17.2022 17.8433 17.1422 30.1833 17.1422 30.1833H21.6755V22.5775C21.6755 22.1708 21.7047 21.765 21.8247 21.4733C22.1522 20.66 22.898 19.8183 24.1497 19.8183C25.7913 19.8183 26.4472 21.0675 26.4472 22.8975V30.1833H30.9788Z" fill="white"/>
</g>
<defs>
<clipPath id="clip0_91_647">
<rect width="40" height="40" fill="white" transform="translate(0.5)"/>
</clipPath>
</defs>
</svg>
