<svg width="212" height="115" viewBox="0 0 212 115" fill="none" xmlns="http://www.w3.org/2000/svg">
<path fill-rule="evenodd" clip-rule="evenodd" d="M39.8729 55.7301C40.8641 54.2319 41.7104 52.9363 42.1541 52.2492C44.8438 48.0621 52.7864 38.4724 56.0337 29.9343C58.5133 23.4212 58.2752 17.499 52.5631 14.2063C47.3714 11.2137 40.7428 12.9791 33.969 17.6564C19.3904 27.7228 3.80166 51.0111 0.909368 59.2623C0.594102 60.1633 1.06598 61.1469 1.9671 61.462C2.86404 61.7759 3.848 61.304 4.16327 60.4031C6.94079 52.4856 21.9343 30.1577 35.9297 20.4934C41.4006 16.7168 46.6473 14.778 50.8408 17.1964C54.9806 19.5811 54.6071 23.9853 52.8094 28.7069C49.6509 37.0169 41.8713 46.3096 39.2501 50.3852C37.6083 52.941 31.0714 62.5117 30.7087 63.4668C30.2537 64.6626 31.0089 65.3251 31.2731 65.5238C31.4776 65.6781 32.5471 66.3817 33.6601 65.2766C49.5393 49.5293 84.8071 36.3518 118.211 36.6975C151.322 37.0398 182.681 50.7563 191.115 89.0454C191.321 89.975 192.243 90.5632 193.171 90.3607C194.101 90.1541 194.69 89.2326 194.483 88.303C185.646 48.1846 152.937 33.6063 118.25 33.2473C89.0156 32.9438 58.4327 42.8061 39.8729 55.7301Z" fill="#1A1A1A"/>
<path fill-rule="evenodd" clip-rule="evenodd" d="M192.087 86.7373C188.899 84.2103 185.806 81.5928 182.42 79.3121C173.401 73.2343 162.742 68.8294 151.888 67.6802C150.938 67.5818 150.09 68.2699 149.989 69.2147C149.891 70.1649 150.579 71.0121 151.523 71.1135C161.825 72.1979 171.934 76.4071 180.491 82.1741C184.365 84.7866 187.855 87.8497 191.547 90.6995C191.733 90.8394 193.3 92.1268 193.705 92.3076C194.646 92.7342 195.308 92.3097 195.59 92.074C195.827 91.8799 196.065 91.5907 196.206 91.1512C196.319 90.79 196.374 90.0537 196.237 89.0536C195.811 85.8489 193.742 78.517 193.53 77.2775C191.096 63.0704 191.217 49.4444 190.985 35.0957C190.967 34.1432 190.181 33.3812 189.23 33.3957C188.279 33.4103 187.521 34.1968 187.536 35.148C187.769 49.6786 187.666 63.4773 190.132 77.8567C190.275 78.7091 191.327 83.3861 192.087 86.7373Z" fill="#1A1A1A"/>
</svg>
