<svg width="212" height="84" viewBox="0 0 212 84" fill="none" xmlns="http://www.w3.org/2000/svg">
<path fill-rule="evenodd" clip-rule="evenodd" d="M53.4902 47.5651C54.0303 45.8518 54.4869 44.3732 54.7241 43.5905C56.156 38.8243 61.1491 27.4174 61.9182 18.3151C62.5073 11.3709 60.6468 5.74354 54.2486 4.15214C48.4332 2.70581 42.5477 6.2292 37.3247 12.5917C26.0839 26.2852 17.515 52.9672 17.008 61.696C16.9532 62.6489 17.6778 63.4645 18.6309 63.5191C19.5796 63.5737 20.3954 62.849 20.4503 61.896C20.9388 53.5198 29.2002 27.925 39.9912 14.7787C44.2098 9.64093 48.7192 6.33166 53.4168 7.50102C58.0534 8.65283 58.9078 12.9894 58.4805 18.0236C57.7338 26.8822 52.8157 37.9587 51.4189 42.5987C50.5448 45.5079 46.8978 56.5092 46.8124 57.5274C46.7044 58.8022 47.6129 59.231 47.9216 59.3492C48.1608 59.4412 49.3827 59.8229 50.1482 58.4539C61.0741 38.9411 91.346 16.5565 123.553 7.68517C155.476 -1.10856 189.401 3.43702 208.057 37.9205C208.512 38.7572 209.56 39.0688 210.397 38.6183C211.234 38.1634 211.546 37.1154 211.091 36.2787C191.542 0.147946 156.083 -4.85412 122.639 4.35795C94.4528 12.1209 67.7709 30.0277 53.4902 47.5651Z" fill="#1A1A1A"/>
<path fill-rule="evenodd" clip-rule="evenodd" d="M5.55224 79.3497C6.51784 76.5286 7.56904 73.7503 8.31601 70.8525C10.3073 63.1326 10.7413 54.6893 8.87802 46.9083C8.7134 46.2277 8.03052 45.8107 7.35288 45.972C6.67225 46.1367 6.25537 46.8195 6.41662 47.4972C8.18947 54.8808 7.75595 62.8958 5.86603 70.2199C5.00942 73.5364 3.74742 76.6978 2.68231 79.9466C2.63116 80.1094 2.12517 81.507 2.09948 81.8313C2.03516 82.5861 2.49056 82.9397 2.7223 83.0763C2.91451 83.1928 3.17253 83.2863 3.51069 83.276C3.78814 83.2661 4.31025 83.1236 4.96786 82.7845C7.07763 81.7049 11.6373 78.4808 12.4418 78.0308C21.6623 72.8709 31.1068 69.6184 40.9644 65.9454C41.6178 65.6993 41.9522 64.9702 41.7092 64.3165C41.4663 63.6629 40.7373 63.3318 40.0836 63.5747C30.1009 67.2934 20.5414 70.6005 11.2096 75.8245C10.6556 76.1319 7.68151 78.0038 5.55224 79.3497Z" fill="#1A1A1A"/>
</svg>
