<svg width="211" height="115" viewBox="0 0 211 115" fill="none" xmlns="http://www.w3.org/2000/svg">
<path fill-rule="evenodd" clip-rule="evenodd" d="M39.4725 55.7301C40.4637 54.2319 41.31 52.9363 41.7537 52.2492C44.4434 48.0621 52.386 38.4724 55.6333 29.9343C58.1129 23.4212 57.8749 17.499 52.1628 14.2063C46.971 11.2137 40.3424 12.9791 33.5686 17.6564C18.99 27.7228 3.40127 51.0111 0.508977 59.2623C0.193712 60.1633 0.665591 61.1469 1.56671 61.462C2.46365 61.7759 3.44761 61.304 3.76288 60.4031C6.5404 52.4856 21.5339 30.1577 35.5294 20.4934C41.0002 16.7168 46.2469 14.778 50.4404 17.1964C54.5803 19.5811 54.2067 23.9853 52.409 28.7069C49.2505 37.0169 41.4709 46.3096 38.8497 50.3852C37.2079 52.941 30.671 62.5117 30.3083 63.4668C29.8533 64.6626 30.6085 65.3251 30.8727 65.5238C31.0772 65.6781 32.1467 66.3817 33.2597 65.2766C49.1389 49.5293 84.4067 36.3518 117.811 36.6975C150.922 37.0398 182.281 50.7563 190.714 89.0454C190.921 89.975 191.842 90.5632 192.771 90.3607C193.701 90.1541 194.29 89.2326 194.083 88.303C185.246 48.1846 152.537 33.6063 117.85 33.2473C88.6152 32.9438 58.0323 42.8061 39.4725 55.7301Z" fill="#1A1A1A"/>
<path fill-rule="evenodd" clip-rule="evenodd" d="M191.687 86.7373C188.499 84.2103 185.406 81.5928 182.02 79.3121C173 73.2343 162.341 68.8294 151.487 67.6802C150.537 67.5818 149.69 68.2699 149.589 69.2147C149.49 70.1649 150.178 71.0121 151.123 71.1135C161.425 72.1979 171.534 76.4071 180.09 82.1741C183.964 84.7866 187.454 87.8497 191.147 90.6995C191.333 90.8394 192.899 92.1268 193.304 92.3076C194.246 92.7342 194.908 92.3097 195.189 92.074C195.427 91.8799 195.664 91.5907 195.805 91.1512C195.919 90.79 195.973 90.0537 195.837 89.0536C195.41 85.8489 193.342 78.517 193.13 77.2775C190.696 63.0704 190.817 49.4444 190.585 35.0957C190.566 34.1432 189.781 33.3812 188.83 33.3957C187.879 33.4103 187.121 34.1968 187.135 35.148C187.369 49.6786 187.266 63.4773 189.731 77.8567C189.874 78.7091 190.926 83.3861 191.687 86.7373Z" fill="#1A1A1A"/>
</svg>
